<?xml version="1.0" encoding="UTF-8" standalone="no"?><!DOCTYPE svg PUBLIC "-//W3C//DTD SVG 1.1//EN" "http://www.w3.org/Graphics/SVG/1.1/DTD/svg11.dtd"><svg width="100%" height="100%" viewBox="0 0 183 188" version="1.1" xmlns="http://www.w3.org/2000/svg" xmlns:xlink="http://www.w3.org/1999/xlink" xml:space="preserve" xmlns:serif="http://www.serif.com/" style="fill-rule:evenodd;clip-rule:evenodd;stroke-linecap:round;stroke-linejoin:round;stroke-miterlimit:1.5;"><g><path d="M98.623,93.572c-2.579,0.472 -5.223,0.47 -7.801,-0.006c2.591,-0.313 5.211,-0.311 7.801,0.006Z" style="fill:none;stroke:#4ddf7b;stroke-width:16.67px;"/><path d="M98.623,93.572c-2.579,0.472 -5.223,0.47 -7.801,-0.006c2.591,-0.313 5.211,-0.311 7.801,0.006Z" style="fill:none;stroke:#4ddf7b;stroke-width:16.67px;"/><path d="M141.948,112.928l26.355,13.003c3.145,1.552 5.152,4.738 5.195,8.244c0.042,3.507 -1.888,6.74 -4.994,8.367l-64.767,33.922c-6.263,3.28 -13.736,3.28 -19.999,0l-71.525,-37.462c-1.8,-0.943 -2.914,-2.82 -2.879,-4.851c0.035,-2.031 1.212,-3.869 3.042,-4.75l32.628,-15.701l37.735,19.764c6.263,3.28 13.736,3.28 19.999,-0l39.211,-20.537Zm-43.325,-19.355c-2.579,0.472 -5.223,0.47 -7.801,-0.006c2.591,-0.313 5.211,-0.311 7.801,0.006Zm43.325,19.355l26.355,13.003c3.145,1.552 5.152,4.738 5.195,8.244c0.042,3.507 -1.888,6.74 -4.994,8.367l-64.767,33.922c-6.263,3.28 -13.736,3.28 -19.999,0l-71.525,-37.462c-1.8,-0.943 -2.914,-2.82 -2.879,-4.851c0.035,-2.031 1.212,-3.869 3.042,-4.75l32.628,-15.701l37.735,19.764c6.263,3.28 13.736,3.28 19.999,-0l39.211,-20.537Z" style="fill:none;stroke:#4ddf7b;stroke-width:16.67px;"/><path d="M82.739,133.465l-71.525,-37.462c-1.8,-0.943 -2.914,-2.82 -2.879,-4.851c0.035,-2.031 1.212,-3.869 3.042,-4.75l33.196,-15.974l40.166,21.038c1.936,1.014 3.987,1.714 6.083,2.102c2.578,0.476 5.223,0.478 7.801,0.006c2.107,-0.386 4.169,-1.088 6.114,-2.107l38.739,-20.29l23.827,11.756c3.145,1.552 5.152,4.738 5.195,8.244c0.042,3.507 -1.888,6.74 -4.994,8.367l-64.767,33.922c-6.263,3.28 -13.736,3.28 -19.999,0Z" style="fill:none;stroke:#4ddf7b;stroke-width:16.67px;"/><path d="M84.739,91.465l-71.525,-37.462c-1.8,-0.943 -2.914,-2.82 -2.879,-4.851c0.035,-2.031 1.212,-3.869 3.042,-4.75l68.314,-32.873c8.954,-4.308 19.392,-4.257 28.302,0.139l59.311,29.263c3.145,1.552 5.152,4.738 5.195,8.244c0.042,3.507 -1.888,6.74 -4.994,8.367l-64.767,33.922c-1.945,1.019 -4.008,1.721 -6.114,2.107c-2.59,-0.317 -5.21,-0.319 -7.801,-0.006c-2.096,-0.387 -4.147,-1.088 -6.083,-2.102Z" style="fill:none;stroke:#4ddf7b;stroke-width:16.67px;"/></g></svg>