<?xml version="1.0" encoding="UTF-8" standalone="no"?><!DOCTYPE svg PUBLIC "-//W3C//DTD SVG 1.1//EN" "http://www.w3.org/Graphics/SVG/1.1/DTD/svg11.dtd"><svg width="100%" height="100%" viewBox="0 0 171 45" version="1.1" xmlns="http://www.w3.org/2000/svg" xmlns:xlink="http://www.w3.org/1999/xlink" xml:space="preserve" xmlns:serif="http://www.serif.com/" style="fill-rule:evenodd;clip-rule:evenodd;stroke-linecap:round;stroke-linejoin:round;stroke-miterlimit:1.5;"><g><g id="stackr"><path d="M61.903,37.259c5.837,0 9.104,-2.918 9.104,-6.751c0,-8.494 -12.458,-5.88 -12.458,-9.017c0,-1.176 1.307,-2.091 3.31,-2.091c2.57,0 4.966,1.089 6.229,2.439l2.221,-3.79c-2.091,-1.655 -4.922,-2.875 -8.494,-2.875c-5.532,0 -8.624,3.093 -8.624,6.621c0,8.276 12.501,5.445 12.501,8.929c0,1.307 -1.133,2.265 -3.528,2.265c-2.613,0 -5.75,-1.437 -7.274,-2.875l-2.396,3.877c2.221,2.047 5.75,3.267 9.409,3.267Z" style="fill:#4ddf7b;fill-rule:nonzero;"/><path d="M82.157,37.259c2.309,0 3.79,-0.61 4.617,-1.35l-1.176,-4.182c-0.305,0.305 -1.089,0.61 -1.917,0.61c-1.22,0 -1.917,-1.002 -1.917,-2.309l0,-9.496l4.269,0l0,-4.835l-4.269,0l0,-5.75l-5.575,0l0,5.75l-3.485,0l0,4.835l3.485,0l0,10.977c0,3.746 2.091,5.75 5.967,5.75Z" style="fill:#4ddf7b;fill-rule:nonzero;"/><path d="M107.987,36.736l0,-13.59c0,-6.055 -4.399,-7.971 -9.191,-7.971c-3.31,0 -6.621,1.045 -9.191,3.31l2.091,3.702c1.786,-1.655 3.877,-2.483 6.142,-2.483c2.788,0 4.617,1.394 4.617,3.528l0,2.831c-1.394,-1.655 -3.877,-2.57 -6.664,-2.57c-3.354,0 -7.318,1.873 -7.318,6.795c0,4.704 3.964,6.969 7.318,6.969c2.744,0 5.227,-1.002 6.664,-2.701l0,2.178l5.532,0Zm-9.975,-3.223c-2.178,0 -3.964,-1.133 -3.964,-3.093c0,-2.047 1.786,-3.18 3.964,-3.18c1.786,0 3.528,0.61 4.443,1.829l0,2.613c-0.915,1.22 -2.657,1.829 -4.443,1.829Z" style="fill:#4ddf7b;fill-rule:nonzero;"/><path d="M123.276,37.259c4.312,0 6.926,-1.873 8.32,-3.833l-3.615,-3.354c-1.002,1.394 -2.526,2.265 -4.443,2.265c-3.354,0 -5.706,-2.483 -5.706,-6.142c0,-3.659 2.352,-6.098 5.706,-6.098c1.917,0 3.441,0.784 4.443,2.265l3.615,-3.398c-1.394,-1.917 -4.007,-3.79 -8.32,-3.79c-6.49,0 -11.151,4.574 -11.151,11.02c0,6.49 4.661,11.064 11.151,11.064Z" style="fill:#4ddf7b;fill-rule:nonzero;"/><path d="M155.77,36.736l-8.581,-11.499l8.32,-9.539l-6.795,0l-7.971,9.365l0,-17.38l-5.532,0l0,29.053l5.532,0l0,-5.401l2.526,-2.701l5.575,8.102l6.926,0Z" style="fill:#4ddf7b;fill-rule:nonzero;"/><path d="M164.047,36.736l0,-13.895c0.915,-1.35 3.354,-2.396 5.183,-2.396c0.61,0 1.133,0.044 1.525,0.131l0,-5.401c-2.613,0 -5.227,1.525 -6.708,3.398l0,-2.875l-5.532,0l0,21.039l5.532,0Z" style="fill:#4ddf7b;fill-rule:nonzero;"/></g><path d="M23.67,22.457c-0.619,0.113 -1.254,0.113 -1.872,-0.001c0.622,-0.075 1.251,-0.075 1.872,0.001Z" style="fill:none;stroke:#4ddf7b;stroke-width:4px;"/><path d="M23.67,22.457c-0.619,0.113 -1.254,0.113 -1.872,-0.001c0.622,-0.075 1.251,-0.075 1.872,0.001Z" style="fill:none;stroke:#4ddf7b;stroke-width:4px;"/><path d="M34.068,27.103l6.325,3.121c0.755,0.372 1.237,1.137 1.247,1.979c0.01,0.842 -0.453,1.618 -1.199,2.008l-15.544,8.141c-1.503,0.787 -3.297,0.787 -4.8,0l-17.166,-8.991c-0.432,-0.226 -0.699,-0.677 -0.691,-1.164c0.008,-0.487 0.291,-0.929 0.73,-1.14l7.831,-3.768l9.056,4.743c1.503,0.787 3.297,0.787 4.8,-0l9.411,-4.929Zm-10.398,-4.645c-0.619,0.113 -1.254,0.113 -1.872,-0.001c0.622,-0.075 1.251,-0.075 1.872,0.001Zm10.398,4.645l6.325,3.121c0.755,0.372 1.237,1.137 1.247,1.979c0.01,0.842 -0.453,1.618 -1.199,2.008l-15.544,8.141c-1.503,0.787 -3.297,0.787 -4.8,0l-17.166,-8.991c-0.432,-0.226 -0.699,-0.677 -0.691,-1.164c0.008,-0.487 0.291,-0.929 0.73,-1.14l7.831,-3.768l9.056,4.743c1.503,0.787 3.297,0.787 4.8,-0l9.411,-4.929Z" style="fill:none;stroke:#4ddf7b;stroke-width:4px;"/><path d="M19.857,32.032l-17.166,-8.991c-0.432,-0.226 -0.699,-0.677 -0.691,-1.164c0.008,-0.487 0.291,-0.929 0.73,-1.14l7.967,-3.834l9.64,5.049c0.465,0.243 0.957,0.411 1.46,0.504c0.619,0.114 1.253,0.115 1.872,0.001c0.506,-0.093 1.001,-0.261 1.467,-0.506l9.297,-4.87l5.719,2.821c0.755,0.372 1.237,1.137 1.247,1.979c0.01,0.842 -0.453,1.618 -1.199,2.008l-15.544,8.141c-1.503,0.787 -3.297,0.787 -4.8,0Z" style="fill:none;stroke:#4ddf7b;stroke-width:4px;"/><path d="M20.337,21.952l-17.166,-8.991c-0.432,-0.226 -0.699,-0.677 -0.691,-1.164c0.008,-0.487 0.291,-0.929 0.73,-1.14l16.395,-7.89c2.149,-1.034 4.654,-1.022 6.793,0.033l14.235,7.023c0.755,0.372 1.237,1.137 1.247,1.979c0.01,0.842 -0.453,1.618 -1.199,2.008l-15.544,8.141c-0.467,0.245 -0.962,0.413 -1.467,0.506c-0.622,-0.076 -1.25,-0.077 -1.872,-0.001c-0.503,-0.093 -0.995,-0.261 -1.46,-0.504Z" style="fill:none;stroke:#4ddf7b;stroke-width:4px;"/></g></svg>