<?xml version="1.0" encoding="UTF-8" standalone="no"?>
<!DOCTYPE svg PUBLIC "-//W3C//DTD SVG 1.1//EN" "http://www.w3.org/Graphics/SVG/1.1/DTD/svg11.dtd">
<svg width="100%" height="100%" viewBox="0 0 712 188" version="1.1" xmlns="http://www.w3.org/2000/svg" xmlns:xlink="http://www.w3.org/1999/xlink" xml:space="preserve" xmlns:serif="http://www.serif.com/" style="fill-rule:evenodd;clip-rule:evenodd;stroke-linecap:round;stroke-linejoin:round;stroke-miterlimit:1.5;">
    <g transform="matrix(1,0,0,1,-140.094884,-406.370692)">
        <g transform="matrix(3.629834,0,0,3.629834,-1024.10491,-2230.61355)">
            <g transform="matrix(50,0,0,50,379.938937,768.644486)">
                <path d="M0.237,0.012C0.371,0.012 0.446,-0.055 0.446,-0.143C0.446,-0.338 0.16,-0.278 0.16,-0.35C0.16,-0.377 0.19,-0.398 0.236,-0.398C0.295,-0.398 0.35,-0.373 0.379,-0.342L0.43,-0.429C0.382,-0.467 0.317,-0.495 0.235,-0.495C0.108,-0.495 0.037,-0.424 0.037,-0.343C0.037,-0.153 0.324,-0.218 0.324,-0.138C0.324,-0.108 0.298,-0.086 0.243,-0.086C0.183,-0.086 0.111,-0.119 0.076,-0.152L0.021,-0.063C0.072,-0.016 0.153,0.012 0.237,0.012Z" style="fill:white;fill-rule:nonzero;"/>
            </g>
        </g>
        <g transform="matrix(3.629834,0,0,3.629834,-1024.10491,-2230.61355)">
            <g transform="matrix(50,0,0,50,403.788937,768.644486)">
                <path d="M0.225,0.012C0.278,0.012 0.312,-0.002 0.331,-0.019L0.304,-0.115C0.297,-0.108 0.279,-0.101 0.26,-0.101C0.232,-0.101 0.216,-0.124 0.216,-0.154L0.216,-0.372L0.314,-0.372L0.314,-0.483L0.216,-0.483L0.216,-0.615L0.088,-0.615L0.088,-0.483L0.008,-0.483L0.008,-0.372L0.088,-0.372L0.088,-0.12C0.088,-0.034 0.136,0.012 0.225,0.012Z" style="fill:white;fill-rule:nonzero;"/>
            </g>
        </g>
        <g transform="matrix(3.629834,0,0,3.629834,-1024.10491,-2230.61355)">
            <g transform="matrix(50,0,0,50,420.688937,768.644486)">
                <path d="M0.48,-0L0.48,-0.312C0.48,-0.451 0.379,-0.495 0.269,-0.495C0.193,-0.495 0.117,-0.471 0.058,-0.419L0.106,-0.334C0.147,-0.372 0.195,-0.391 0.247,-0.391C0.311,-0.391 0.353,-0.359 0.353,-0.31L0.353,-0.245C0.321,-0.283 0.264,-0.304 0.2,-0.304C0.123,-0.304 0.032,-0.261 0.032,-0.148C0.032,-0.04 0.123,0.012 0.2,0.012C0.263,0.012 0.32,-0.011 0.353,-0.05L0.353,-0L0.48,-0ZM0.251,-0.074C0.201,-0.074 0.16,-0.1 0.16,-0.145C0.16,-0.192 0.201,-0.218 0.251,-0.218C0.292,-0.218 0.332,-0.204 0.353,-0.176L0.353,-0.116C0.332,-0.088 0.292,-0.074 0.251,-0.074Z" style="fill:white;fill-rule:nonzero;"/>
            </g>
        </g>
        <g transform="matrix(3.629834,0,0,3.629834,-1024.10491,-2230.61355)">
            <g transform="matrix(50,0,0,50,447.838937,768.644486)">
                <path d="M0.288,0.012C0.387,0.012 0.447,-0.031 0.479,-0.076L0.396,-0.153C0.373,-0.121 0.338,-0.101 0.294,-0.101C0.217,-0.101 0.163,-0.158 0.163,-0.242C0.163,-0.326 0.217,-0.382 0.294,-0.382C0.338,-0.382 0.373,-0.364 0.396,-0.33L0.479,-0.408C0.447,-0.452 0.387,-0.495 0.288,-0.495C0.139,-0.495 0.032,-0.39 0.032,-0.242C0.032,-0.093 0.139,0.012 0.288,0.012Z" style="fill:white;fill-rule:nonzero;"/>
            </g>
        </g>
        <g transform="matrix(3.629834,0,0,3.629834,-1024.10491,-2230.61355)">
            <g transform="matrix(50,0,0,50,472.788937,768.644486)">
                <path d="M0.535,-0L0.338,-0.264L0.529,-0.483L0.373,-0.483L0.19,-0.268L0.19,-0.667L0.063,-0.667L0.063,-0L0.19,-0L0.19,-0.124L0.248,-0.186L0.376,-0L0.535,-0Z" style="fill:white;fill-rule:nonzero;"/>
            </g>
        </g>
        <g transform="matrix(3.629834,0,0,3.629834,-1024.10491,-2230.61355)">
            <g transform="matrix(50,0,0,50,499.538937,768.644486)">
                <path d="M0.19,-0L0.19,-0.319C0.211,-0.35 0.267,-0.374 0.309,-0.374C0.323,-0.374 0.335,-0.373 0.344,-0.371L0.344,-0.495C0.284,-0.495 0.224,-0.46 0.19,-0.417L0.19,-0.483L0.063,-0.483L0.063,-0L0.19,-0Z" style="fill:white;fill-rule:nonzero;"/>
            </g>
        </g>
        <g transform="matrix(1,0,0,1,-4.167154,-16.926869)">
            <g transform="matrix(1.1375,0,0,1.108434,-6.7,-6.506024)">
                <path d="M219.415,472.176C217.149,472.602 214.823,472.601 212.557,472.171C214.835,471.889 217.138,471.89 219.415,472.176Z" style="fill:none;stroke:rgb(77,223,123);stroke-width:14.84px;"/>
            </g>
        </g>
        <g transform="matrix(1,0,0,1,-4.167154,-16.926869)">
            <g transform="matrix(1.1375,0,0,1.108434,-8.7,35.493976)">
                <path d="M221.174,434.285C218.907,434.711 216.582,434.709 214.315,434.28C216.593,433.997 218.897,433.999 221.174,434.285Z" style="fill:none;stroke:rgb(77,223,123);stroke-width:14.84px;"/>
            </g>
        </g>
        <g transform="matrix(1,0,0,1,-4.167154,-16.926869)">
            <g transform="matrix(1.1375,0,0,1.108434,-7.7,78.493976)">
                <path d="M258.383,412.953L281.552,424.685C284.317,426.084 286.082,428.959 286.119,432.122C286.156,435.286 284.459,438.203 281.728,439.671L224.791,470.275C219.285,473.234 212.715,473.234 207.209,470.275L144.33,436.477C142.748,435.627 141.768,433.934 141.799,432.101C141.829,430.269 142.864,428.61 144.473,427.816L173.157,413.651L206.33,431.482C211.836,434.441 218.406,434.441 223.911,431.482L258.383,412.953ZM220.294,395.491C218.028,395.918 215.703,395.916 213.436,395.486C215.714,395.204 218.017,395.206 220.294,395.491ZM258.383,412.953L281.552,424.685C284.317,426.084 286.082,428.959 286.119,432.122C286.156,435.286 284.459,438.203 281.728,439.671L224.791,470.275C219.285,473.234 212.715,473.234 207.209,470.275L144.33,436.477C142.748,435.627 141.768,433.934 141.799,432.101C141.829,430.269 142.864,428.61 144.473,427.816L173.157,413.651L206.33,431.482C211.836,434.441 218.406,434.441 223.911,431.482L258.383,412.953Z" style="fill:rgb(77,223,123);stroke:rgb(77,223,123);stroke-width:14.84px;"/>
            </g>
        </g>
        <g transform="matrix(1,0,0,1,-4.167154,-16.926869)">
            <g transform="matrix(1,0,0,1,21,41)">
                <path d="M206.001,515.763L134.475,478.3C132.676,477.358 131.562,475.481 131.596,473.449C131.631,471.418 132.808,469.58 134.638,468.699L167.834,452.725L208.001,473.763C209.937,474.777 211.988,475.477 214.084,475.864C216.662,476.34 219.306,476.342 221.885,475.87C223.992,475.484 226.054,474.782 227.999,473.763L266.738,453.473L290.565,465.229C293.71,466.78 295.718,469.966 295.76,473.473C295.802,476.98 293.872,480.213 290.766,481.84L225.999,515.763C219.737,519.043 212.263,519.043 206.001,515.763Z" style="fill:none;stroke:rgb(77,223,123);stroke-width:16.67px;"/>
            </g>
        </g>
        <g transform="matrix(1,0,0,1,-4.167154,-16.926869)">
            <g transform="matrix(1,0,0,1,21,41)">
                <path d="M208.001,473.763L136.475,436.3C134.676,435.358 133.562,433.481 133.596,431.449C133.631,429.418 134.808,427.58 136.638,426.699L204.952,393.826C213.906,389.517 224.344,389.569 233.255,393.965L292.565,423.229C295.71,424.78 297.718,427.966 297.76,431.473C297.802,434.98 295.872,438.213 292.766,439.84L227.999,473.763C226.054,474.782 223.992,475.484 221.885,475.87C219.295,475.553 216.675,475.551 214.084,475.864C211.988,475.477 209.937,474.777 208.001,473.763Z" style="fill:none;stroke:rgb(77,223,123);stroke-width:16.67px;"/>
            </g>
        </g>
    </g>
</svg>
